<svg width="99" height="99" viewBox="0 0 99 99" fill="none" xmlns="http://www.w3.org/2000/svg">
<g id="Art_Institute_of_Chicago_logo 1" clip-path="url(#clip0_646_449)">
<path id="path2" d="M0 0H99V99H0V0Z" fill="#B50938"/>
<path id="path4" d="M15.5441 60.2619L14.3174 57.5287H10.4241L10.3853 57.6341C10.041 58.4283 9.67189 59.3376 9.34153 60.1554H7.88989L11.0299 53.3976C11.5443 52.2892 11.8886 51.5123 12.1781 50.7472L12.5224 50.6536L15.6894 57.4501C16.0606 58.268 16.5739 59.3387 16.9957 60.1554L15.5441 60.2619ZM13.8288 56.4461L12.3643 53.1619L10.9126 56.4461H13.8288ZM25.4441 60.249L23.0692 56.5129H21.6294V58.2561C21.6294 58.7694 21.6412 59.7863 21.6821 60.1554H20.2175C20.2832 59.5216 20.309 57.8311 20.309 56.9745V54.0583C20.309 53.2136 20.2832 51.5112 20.2175 50.8774C20.6921 50.8774 22.0372 50.8257 22.6452 50.8128C24.9685 50.773 26.2469 52.0536 26.2081 53.517C26.2021 54.1112 26.0124 54.6889 25.6651 55.171C25.3177 55.653 24.8297 56.0157 24.2679 56.2094L25.6152 58.1894C25.9703 58.6909 26.6977 59.7067 27.0001 60.0758L25.4441 60.249ZM21.6304 55.4185H22.9626C23.2026 55.4404 23.4446 55.4119 23.6729 55.3348C23.9012 55.2578 24.111 55.1339 24.2887 54.9711C24.4664 54.8083 24.6081 54.6102 24.7048 54.3895C24.8014 54.1687 24.8509 53.9302 24.8501 53.6892C24.8501 52.5539 24.1636 51.9621 22.7786 51.9621C22.3557 51.9621 21.9866 51.9739 21.6423 51.9998C21.6315 52.2645 21.6315 52.5679 21.6315 52.7648L21.6304 55.4185ZM36.8485 51.9998C35.8316 51.9868 34.9481 51.9739 33.773 51.9739C33.759 52.2516 33.759 52.5937 33.759 52.8047V58.2561C33.759 58.7694 33.773 59.7863 33.8128 60.1554H32.3493C32.4139 59.5216 32.4397 57.8321 32.4397 56.9756V54.1121C32.4397 53.5708 32.4279 52.7132 32.401 51.9739C31.2259 51.9739 30.3026 51.9868 29.2868 51.9998C29.3253 51.6006 29.3429 51.1998 29.3395 50.7988C31.8772 50.8874 34.4173 50.8874 36.955 50.7988C36.8908 51.1961 36.8552 51.5974 36.8485 51.9998ZM9.31463 75.0893C9.38243 74.4598 9.40717 72.7801 9.40717 71.9278V69.0267C9.40717 68.1873 9.38243 66.4957 9.31463 65.8651C9.80401 65.8716 10.2934 65.8501 10.7803 65.8006C10.7404 66.1804 10.7275 67.2296 10.7275 67.7418V73.2008C10.7275 73.698 10.7404 74.7235 10.7803 75.0904L9.31463 75.0893ZM23.3188 67.7408L23.2274 73.2794C23.2274 73.7916 23.2144 74.8548 23.2532 75.2217L22.911 75.3132L16.8526 68.3972V73.1997C16.8526 73.712 16.8655 74.7235 16.9064 75.0893H15.4537C15.5333 74.4598 15.599 72.7801 15.6119 71.9267L15.6657 68.7663C15.6786 67.9258 15.6786 66.3634 15.6119 65.7338L15.9692 65.6413L22.0802 72.6617V69.0267C22.0802 68.1873 22.0533 66.4957 21.9748 65.8651C22.4595 65.871 22.9442 65.8494 23.4264 65.8006C23.3726 66.1804 23.3328 67.2285 23.3188 67.7408ZM29.7355 75.3261C28.8163 75.3006 27.9199 75.0334 27.1368 74.5513L27.2153 73.161C27.9507 73.7643 28.8636 74.1098 29.8141 74.1445C30.8041 74.1445 31.5035 73.6603 31.5035 72.6875C31.5035 70.8528 27.5059 70.7603 27.5059 68.3444C27.5127 67.9733 27.5943 67.6073 27.7459 67.2685C27.8975 66.9296 28.1159 66.6249 28.3881 66.3725C28.6603 66.1201 28.9807 65.9252 29.33 65.7996C29.6793 65.6739 30.0504 65.6201 30.421 65.6413C31.1962 65.6362 31.9533 65.8752 32.585 66.3246L32.1492 67.4793C31.6385 67.0809 31.0164 66.8515 30.3693 66.8228C29.4041 66.8228 28.8241 67.3361 28.8241 68.1626C28.8241 69.8025 32.8099 69.8811 32.8099 72.5057C32.8128 72.8988 32.7333 73.2882 32.5764 73.6487C32.4195 74.0092 32.1887 74.3328 31.899 74.5986C31.6093 74.8643 31.2671 75.0664 30.8944 75.1917C30.5218 75.317 30.127 75.3628 29.7355 75.3261ZM43.2899 66.98C42.2652 66.9643 41.2404 66.956 40.2155 66.9552C40.2005 67.2296 40.2005 67.5707 40.2005 67.7806V73.2008C40.2005 73.712 40.2145 74.7224 40.2543 75.0904H38.7908C38.8554 74.4598 38.8812 72.7801 38.8812 71.9267V69.0805C38.8812 68.5424 38.8694 67.6891 38.8414 66.9552C37.6684 66.9552 36.743 66.966 35.7283 66.98C35.7667 66.5834 35.7843 66.185 35.781 65.7866C36.9819 65.8253 38.1043 65.8511 39.5419 65.8511C40.9796 65.8511 42.1805 65.8253 43.3954 65.7866C43.3321 66.1814 43.2969 66.5802 43.2899 66.98ZM46.8679 75.0893C46.9357 74.4598 46.9615 72.7801 46.9615 71.9278V69.0267C46.9615 68.1873 46.9357 66.4957 46.8679 65.8651C47.3573 65.8716 47.8466 65.8501 48.3335 65.8006C48.2937 66.1804 48.2808 67.2296 48.2808 67.7418V73.2008C48.2808 73.698 48.2937 74.7235 48.3335 75.0904L46.8679 75.0893ZM59.2892 66.98C58.2723 66.966 57.3888 66.9552 56.2137 66.9552C56.1997 67.2296 56.1997 67.5707 56.1997 67.7806V73.2008C56.1997 73.712 56.2137 74.7224 56.2535 75.0904H54.7901C54.8546 74.4598 54.8805 72.7801 54.8805 71.9267V69.0805C54.8805 68.5424 54.8675 67.6891 54.8417 66.9552C53.6666 66.9552 52.7433 66.966 51.7275 66.98C51.766 66.5834 51.7836 66.185 51.7802 65.7866C52.9801 65.8253 54.1035 65.8511 55.5412 65.8511C56.9788 65.8511 58.1797 65.8253 59.3946 65.7866C59.3309 66.1813 59.2956 66.5801 59.2892 66.98ZM70.9303 65.878L67.9743 72.5982C67.4868 73.712 67.1694 74.4728 66.9057 75.2335L66.5625 75.3261L63.6075 68.5812C63.2147 67.6748 62.8007 66.7778 62.3657 65.891L63.8184 65.7866L66.7077 72.6757L68.4897 68.3853C68.8061 67.6105 69.1504 66.7056 69.4539 65.878H70.9303ZM80.883 66.98C79.8661 66.966 78.9837 66.9552 77.8086 66.9552C77.7946 67.2296 77.7946 67.5707 77.7946 67.7806V73.2008C77.7946 73.712 77.8086 74.7224 77.8485 75.0904H76.3839C76.4495 74.4598 76.4754 72.7801 76.4754 71.9267V69.0805C76.4754 68.5424 76.4624 67.6891 76.4355 66.9552C75.2615 66.9552 74.3372 66.966 73.3224 66.98C73.3605 66.5833 73.3778 66.185 73.3741 65.7866C74.575 65.8253 75.6984 65.8511 77.1361 65.8511C78.5737 65.8511 79.7736 65.8253 80.9885 65.7866C80.925 66.1814 80.8897 66.5802 80.883 66.98ZM90.2041 75.1432C89.411 75.0894 88.435 75.0764 87.4977 75.0764C86.5604 75.0764 85.5704 75.0904 84.7924 75.1421C84.857 74.5126 84.885 72.8199 84.885 71.9805V68.9481C84.885 68.0969 84.8581 66.4161 84.7924 65.7866C86.5379 65.8723 88.2865 65.8723 90.0319 65.7866C89.9678 66.1726 89.9319 66.5629 89.9243 66.9541C89.1474 66.9412 88.3425 66.9283 87.4052 66.9283C87.0092 66.9283 86.6132 66.9283 86.2301 66.9412C86.2043 67.178 86.2043 67.518 86.2043 67.716V69.6971H89.411C89.3831 70.0551 89.3698 70.4141 89.3712 70.7732H86.2053V73.2008C86.2053 73.3967 86.2053 73.7518 86.2312 73.9864C86.6132 73.9864 87.0103 74.0003 87.4062 74.0003C88.4748 74.0003 89.3992 73.9874 90.2956 73.9616C90.2427 74.3534 90.2121 74.7479 90.2041 75.1432ZM16.1779 89.5089C15.3193 90.1934 14.2533 90.5653 13.1552 90.5635C12.5461 90.5691 11.9419 90.4531 11.3783 90.2221C10.8146 89.9912 10.3027 89.65 9.8726 89.2186C9.44252 88.7873 9.1029 88.2743 8.87368 87.71C8.64445 87.1456 8.53022 86.5411 8.5377 85.932C8.50946 85.2739 8.61429 84.6169 8.84592 84.0003C9.07754 83.3837 9.4312 82.8202 9.88572 82.3435C10.3402 81.8668 10.8863 81.4866 11.4911 81.2259C12.096 80.9651 12.7473 80.8291 13.4059 80.826C14.3825 80.8264 15.3371 81.1154 16.1499 81.6567L15.7808 82.8705C15.0807 82.3206 14.2176 82.0189 13.3274 82.0129C12.8587 82.0136 12.3951 82.1099 11.965 82.296C11.5349 82.4821 11.1473 82.754 10.8259 83.0951C10.5046 83.4362 10.2562 83.8393 10.0961 84.2797C9.93595 84.7202 9.8674 85.1887 9.89464 85.6565C9.89464 88.0702 11.3732 89.3766 13.2327 89.3766C13.8025 89.3709 14.3653 89.2499 14.8872 89.0209C15.4091 88.792 15.8793 88.4598 16.2694 88.0444L16.1779 89.5089ZM26.2759 90.3267C26.3545 89.6919 26.3814 88.0035 26.3814 87.1448V86.0385H21.539V88.4275C21.539 88.9278 21.5497 89.9587 21.5906 90.3278H20.125C20.1906 89.6929 20.2186 88.0035 20.2186 87.1458V84.2296C20.2186 83.3849 20.1906 81.6836 20.125 81.0498C20.6144 81.0563 21.1038 81.034 21.5906 80.9831C21.5508 81.3662 21.5379 82.4218 21.5379 82.9372V84.956H26.3814V84.2296C26.3814 83.3849 26.3545 81.6836 26.2759 81.0498C26.7739 81.0558 27.2719 81.0336 27.7674 80.9831C27.7136 81.3662 27.7007 82.4218 27.7007 82.9372V88.4264C27.7007 88.9278 27.7136 89.9587 27.7663 90.3267H26.2759ZM32.4935 90.3267C32.5613 89.6919 32.5861 88.0035 32.5861 87.1448V84.2286C32.5861 83.3838 32.5613 81.6836 32.4935 81.0487C32.983 81.0552 33.4724 81.0329 33.9592 80.982C33.9204 81.3651 33.9054 82.4207 33.9054 82.9362V88.4264C33.9054 88.9268 33.9204 89.9576 33.9592 90.3267H32.4935ZM45.5615 89.5089C44.7025 90.1934 43.6361 90.5653 42.5377 90.5635C41.9286 90.5691 41.3245 90.4531 40.7608 90.2221C40.1971 89.9912 39.6852 89.65 39.2552 89.2186C38.8251 88.7873 38.4855 88.2743 38.2562 87.71C38.027 87.1456 37.9128 86.5411 37.9202 85.932C37.892 85.2738 37.9969 84.6168 38.2286 84.0001C38.4603 83.3834 38.814 82.8198 39.2686 82.3431C39.7233 81.8664 40.2694 81.4863 40.8744 81.2256C41.4794 80.9649 42.1308 80.829 42.7895 80.826C43.7661 80.8263 44.7208 81.1154 45.5336 81.6567L45.1634 82.8705C44.463 82.3203 43.5995 82.0186 42.7088 82.0129C42.2405 82.0139 41.7772 82.1104 41.3474 82.2965C40.9176 82.4827 40.5303 82.7545 40.2092 83.0955C39.8881 83.4365 39.6399 83.8393 39.4799 84.2795C39.3198 84.7197 39.2512 85.1879 39.2783 85.6554C39.2783 88.0691 40.7568 89.3755 42.6163 89.3755C43.186 89.3696 43.7486 89.2486 44.2703 89.0197C44.792 88.7907 45.2619 88.4586 45.6519 88.0433L45.5615 89.5089ZM55.935 90.4333L54.7083 87.7H50.8161L50.7773 87.8076C50.433 88.5985 50.0639 89.5078 49.7335 90.3278H48.2819L51.423 83.57C51.9374 82.4616 52.2806 81.6836 52.5701 80.9185L52.9144 80.8249L56.0814 87.6215C56.4526 88.4404 56.9659 89.5089 57.3877 90.3278L55.935 90.4333ZM54.2208 86.6185L52.7563 83.3322L51.3046 86.6185H54.2208ZM66.6421 85.9707C67.1683 85.9643 67.4287 85.9514 68.0087 85.9212C67.9431 86.4216 67.9624 87.714 67.9624 88.5727V89.5875C66.9982 90.2539 65.8468 90.5962 64.675 90.5646C63.4279 90.5815 62.2248 90.1035 61.3295 89.2352C60.4342 88.3669 59.9195 87.1791 59.8982 85.932C59.8775 85.2624 59.9928 84.5956 60.2371 83.9719C60.4813 83.3481 60.8496 82.7804 61.3195 82.303C61.7895 81.8257 62.3513 81.4485 62.9712 81.1945C63.591 80.9404 64.2559 80.8147 64.9257 80.8249C65.9605 80.8257 66.9747 81.1132 67.8559 81.6556L67.4857 82.8695C66.716 82.317 65.7936 82.0173 64.8461 82.0118C64.365 81.9928 63.8853 82.0745 63.4376 82.2516C62.99 82.4287 62.5842 82.6974 62.2464 83.0404C61.9085 83.3834 61.6461 83.7932 61.4757 84.2435C61.3054 84.6938 61.231 85.1747 61.2573 85.6554C61.2126 86.1362 61.2705 86.621 61.4274 87.0776C61.5842 87.5343 61.8363 87.9524 62.1671 88.3042C62.4978 88.6559 62.8995 88.9334 63.3456 89.1181C63.7917 89.3028 64.272 89.3905 64.7546 89.3755C65.418 89.4011 66.0768 89.2559 66.6679 88.9537V87.346C66.6679 87.1469 66.6679 86.7918 66.6421 86.554V85.9707ZM80.8034 85.4574C80.8442 86.1099 80.7516 86.7638 80.5311 87.3792C80.3106 87.9946 79.9669 88.5586 79.521 89.0366C79.0751 89.5146 78.5363 89.8967 77.9377 90.1594C77.3391 90.4221 76.6933 90.56 76.0396 90.5646C75.4363 90.5681 74.8386 90.4497 74.2823 90.2165C73.726 89.9832 73.2226 89.64 72.8022 89.2073C72.3819 88.7746 72.0534 88.2614 71.8364 87.6986C71.6193 87.1358 71.5183 86.5349 71.5394 85.932C71.4983 85.2794 71.5909 84.6254 71.8114 84.0098C72.032 83.3943 72.3758 82.8302 72.8218 82.3521C73.2678 81.8741 73.8068 81.492 74.4056 81.2294C75.0043 80.9668 75.6504 80.8292 76.3043 80.8249C76.9074 80.8213 77.505 80.9397 78.0613 81.1729C78.6175 81.406 79.1209 81.7492 79.5412 82.1818C79.9615 82.6144 80.29 83.1274 80.5071 83.6901C80.7242 84.2528 80.8254 84.8536 80.8045 85.4564M79.4454 85.6684C79.4454 83.3322 78.0185 81.9451 76.1579 81.9451C74.2059 81.9451 72.8995 83.6625 72.8995 85.7211C72.8995 88.0562 74.3232 89.4444 76.1848 89.4444C78.139 89.4444 79.4454 87.7269 79.4454 85.6684Z" fill="white"/>
</g>
<defs>
<clipPath id="clip0_646_449">
<rect width="99" height="99" fill="white"/>
</clipPath>
</defs>
</svg>
